<?xml version="1.0" standalone="no"?>
<!DOCTYPE svg PUBLIC "-//W3C//DTD SVG 20010904//EN"
 "http://www.w3.org/TR/2001/REC-SVG-20010904/DTD/svg10.dtd">
<svg version="1.0" xmlns="http://www.w3.org/2000/svg"
 width="1280.000000pt" height="380.000000pt" viewBox="0 0 1280.000000 380.000000"
 preserveAspectRatio="xMidYMid meet">

<g transform="translate(0.000000,380.000000) scale(0.100000,-0.100000)"
fill="#000000" stroke="none">
<path d="M623 3685 c2 -5 21 -10 42 -10 21 0 40 5 42 10 2 6 -16 10 -42 10
-26 0 -44 -4 -42 -10z"/>
<path d="M12000 3670 c0 -5 5 -10 11 -10 5 0 7 5 4 10 -3 6 -8 10 -11 10 -2 0
-4 -4 -4 -10z"/>
<path d="M620 3640 c0 -5 15 -10 34 -10 35 0 55 -13 36 -25 -13 -8 -13 -25 0
-25 14 0 31 37 24 54 -7 18 -94 23 -94 6z"/>
<path d="M12006 3635 c4 -8 8 -15 10 -15 2 0 4 7 4 15 0 8 -4 15 -10 15 -5 0
-7 -7 -4 -15z"/>
<path d="M12006 3597 c3 -10 9 -15 12 -12 3 3 0 11 -7 18 -10 9 -11 8 -5 -6z"/>
<path d="M653 3558 c-46 -15 -41 -33 12 -51 45 -16 56 -12 33 11 -9 9 -9 15 0
24 28 28 11 34 -45 16z m24 -24 c-3 -3 -12 -4 -19 -1 -8 3 -5 6 6 6 11 1 17
-2 13 -5z"/>
<path d="M789 3518 c-2 -24 -1 -77 2 -118 5 -69 6 -65 7 43 2 117 -3 155 -9
75z"/>
<path d="M12011 3544 c0 -11 3 -14 6 -6 3 7 2 16 -1 19 -3 4 -6 -2 -5 -13z"/>
<path d="M6923 3504 c21 -20 42 -33 45 -29 8 8 -57 65 -73 65 -5 0 7 -17 28
-36z"/>
<path d="M12120 3520 c-23 -7 -23 -8 -3 -9 12 -1 25 4 28 9 3 6 5 10 3 9 -2
-1 -14 -5 -28 -9z"/>
<path d="M4162 3493 c-37 -53 -62 -113 -64 -153 -3 -75 31 -66 68 17 21 47 25
67 20 105 -7 52 -3 57 28 31 21 -18 21 -18 2 5 -25 28 -31 28 -54 -5z"/>
<path d="M4312 3488 c-38 -64 -63 -130 -60 -161 5 -51 30 -39 64 31 l31 62 12
-40 c16 -53 55 -99 72 -83 18 18 3 91 -35 158 -18 33 -40 61 -48 63 -9 2 -24
-11 -36 -30z"/>
<path d="M12010 3510 c0 -5 5 -10 10 -10 6 0 10 5 10 10 0 6 -4 10 -10 10 -5
0 -10 -4 -10 -10z"/>
<path d="M620 3461 c0 -12 10 -23 28 -29 l27 -10 -27 -11 c-46 -18 -36 -41 17
-41 51 0 63 19 13 21 l-33 1 33 10 c37 13 41 25 10 37 l-22 8 22 5 c39 11 24
28 -23 28 -38 0 -45 -3 -45 -19z"/>
<path d="M7853 3435 c-56 -28 -71 -42 -76 -71 -7 -33 -20 -59 -38 -72 -10 -7
-21 -29 -25 -50 -4 -20 -13 -43 -21 -50 -7 -7 -13 -20 -13 -27 0 -9 -10 -13
-26 -12 -15 1 -29 -4 -32 -12 -3 -8 0 -11 6 -7 6 3 13 2 16 -3 4 -5 -40 -9
-104 -10 -120 -1 -151 -10 -214 -60 -21 -17 -44 -31 -51 -31 -7 0 -33 -11 -58
-24 -25 -14 -64 -30 -86 -37 -32 -9 -41 -18 -46 -41 -4 -16 -13 -32 -21 -35
-8 -3 -14 -12 -14 -20 0 -10 -9 -13 -27 -11 -22 2 -29 9 -31 31 -6 48 -32 33
-32 -18 l0 -46 65 7 c47 5 65 4 65 -5 0 -7 11 -23 24 -36 21 -21 27 -22 70
-13 26 5 50 7 54 4 8 -9 -13 -132 -54 -310 -30 -132 -32 -151 -19 -166 9 -10
13 -32 11 -65 -3 -48 23 -125 42 -125 23 0 232 238 232 264 0 2 29 52 65 109
36 58 65 108 65 112 0 3 11 21 24 38 64 86 84 148 85 273 l1 62 34 -8 c19 -4
37 -5 40 -3 3 3 13 2 23 -1 15 -6 15 -9 3 -16 -8 -5 -11 -12 -6 -17 4 -4 12
-1 16 7 21 35 28 41 48 45 26 5 30 -16 6 -36 -13 -11 -13 -15 -2 -23 7 -6 13
-17 14 -23 3 -39 5 -44 15 -37 9 5 10 -8 5 -49 -4 -30 -9 -77 -12 -104 -5 -54
-38 -93 -79 -93 -26 0 -45 -25 -45 -58 0 -10 -14 -39 -32 -63 -18 -24 -38 -66
-45 -93 -12 -45 -11 -51 12 -90 33 -57 40 -105 22 -148 -9 -21 -12 -48 -8 -72
6 -35 10 -39 71 -65 45 -18 71 -36 85 -58 11 -17 28 -34 37 -36 19 -5 19 -6 3
66 -20 96 -23 179 -9 302 8 72 19 173 24 225 7 62 20 117 37 158 28 66 36 152
18 202 -8 22 -7 24 8 11 9 -7 23 -11 31 -8 7 3 24 0 38 -7 19 -10 26 -10 36 0
6 7 9 20 6 28 -3 9 -1 16 5 16 15 0 42 43 45 74 1 13 8 32 16 41 7 8 10 18 7
21 -3 3 -1 18 4 32 16 42 14 145 -3 178 -25 47 -48 104 -48 117 0 7 -28 20
-62 30 -35 10 -77 23 -94 28 -42 13 -44 12 -101 -16z m145 -87 c7 -7 12 -29
12 -50 0 -34 -3 -38 -26 -38 -21 0 -25 -4 -22 -22 2 -13 15 -29 31 -36 15 -7
27 -21 27 -30 0 -33 -32 -97 -58 -116 -31 -24 -82 -23 -100 2 -11 15 -10 18
10 23 13 3 22 11 21 17 -2 7 3 12 10 12 8 0 7 4 -3 10 -12 8 -9 10 12 10 15 0
30 -4 33 -10 3 -5 14 -10 23 -10 10 1 3 8 -17 19 -32 17 -33 19 -15 29 17 10
17 11 2 12 -21 0 -21 3 -7 54 9 34 8 40 -9 52 -19 13 -20 26 -6 72 4 15 66 16
82 0z m-94 -140 c-5 -7 -18 -21 -30 -31 -13 -9 -24 -27 -26 -40 -2 -12 -4 2
-5 31 l-1 52 35 0 c25 0 32 -3 27 -12z m96 -293 c0 -8 -4 -15 -10 -15 -5 0
-10 7 -10 15 0 8 5 15 10 15 6 0 10 -7 10 -15z m-100 -421 c0 -8 -4 -12 -10
-9 -5 3 -10 10 -10 16 0 5 5 9 10 9 6 0 10 -7 10 -16z"/>
<path d="M8963 3420 c-46 -27 -89 -92 -104 -153 -13 -55 -21 -234 -12 -279 3
-15 14 -28 25 -31 11 -3 17 -10 14 -16 -4 -6 -13 -8 -21 -5 -8 3 -20 2 -26 -2
-9 -5 -6 -10 9 -15 33 -12 112 28 112 57 0 8 13 9 43 4 47 -9 50 -8 54 20 2
15 -5 22 -29 28 -24 6 -34 16 -40 37 -10 38 -1 65 20 65 18 0 122 -92 122
-108 0 -5 -11 -7 -25 -4 -36 6 -31 -14 7 -27 17 -6 29 -13 26 -16 -3 -3 -17 0
-32 6 -37 17 -44 4 -13 -27 20 -20 27 -23 27 -11 0 13 5 14 31 5 16 -6 32 -8
35 -5 3 3 -4 8 -15 12 -23 7 -25 13 -12 34 5 8 18 12 30 8 12 -3 36 2 53 10
l31 16 -27 24 c-29 24 -27 30 5 13 13 -8 19 -7 19 0 0 6 -11 15 -24 20 -30 11
-36 21 -52 84 -41 164 -112 276 -174 276 -14 0 -39 -9 -57 -20z m101 -45 c21
-32 20 -38 -3 -30 -11 3 -22 1 -26 -5 -3 -5 1 -11 9 -11 35 -3 39 -4 43 -15 2
-7 -6 -10 -23 -6 -19 3 -25 1 -20 -7 4 -6 18 -11 32 -11 23 0 24 -2 18 -37 -9
-50 -21 -73 -39 -73 -8 0 -15 -4 -15 -10 0 -17 -66 -11 -82 8 -8 9 -18 36 -22
58 -5 36 -3 42 14 47 11 3 20 10 20 16 0 6 -3 10 -7 9 -5 -2 -8 2 -8 7 0 6 5
11 10 11 27 4 28 7 1 13 l-28 6 26 28 c33 35 77 37 100 2z"/>
<path d="M8987 3240 c-25 -23 -26 -28 -12 -34 22 -8 47 -7 62 2 10 7 10 14 0
35 -14 32 -15 32 -50 -3z"/>
<path d="M12060 3420 c0 -6 30 -10 70 -10 40 0 70 4 70 10 0 6 -30 10 -70 10
-40 0 -70 -4 -70 -10z"/>
<path d="M774 3309 c-3 -6 0 -15 7 -20 12 -8 12 -11 -1 -19 -11 -7 -11 -10 -2
-10 17 0 29 33 14 38 -7 2 -10 8 -6 13 3 5 3 9 0 9 -3 0 -8 -5 -12 -11z"/>
<path d="M12090 3310 c0 -5 15 -10 33 -11 l32 -1 -32 -14 c-18 -8 -33 -18 -33
-23 0 -5 15 -12 33 -17 l32 -8 -32 -3 c-51 -6 -39 -23 17 -23 60 0 69 22 18
43 l-33 14 33 7 c22 5 32 13 32 27 0 16 -7 19 -50 19 -27 0 -50 -4 -50 -10z"/>
<path d="M600 3270 c0 -6 32 -10 75 -10 43 0 75 4 75 10 0 6 -32 10 -75 10
-43 0 -75 -4 -75 -10z"/>
<path d="M3461 3206 c-8 -9 -10 -202 -9 -702 l3 -689 133 -3 132 -3 0 -94 0
-95 548 2 547 3 3 92 3 92 127 3 127 3 0 700 0 700 -42 3 c-40 3 -43 1 -43
-22 0 -13 5 -26 12 -28 23 -8 -4 -28 -37 -28 -33 0 -60 20 -37 28 7 2 12 15
12 28 0 23 -3 24 -65 24 -58 0 -65 -2 -65 -20 0 -10 7 -23 16 -28 9 -5 14 -14
10 -21 -9 -13 -65 -14 -86 -1 -12 8 -12 10 3 16 9 3 17 17 17 30 0 23 -3 24
-65 24 -62 0 -65 -1 -65 -24 0 -13 5 -26 12 -28 23 -8 -4 -28 -37 -28 -33 0
-60 20 -37 28 7 2 12 15 12 28 0 23 -3 24 -60 24 -57 0 -60 -1 -60 -24 0 -13
5 -26 12 -28 25 -9 -5 -28 -43 -28 -28 0 -39 4 -39 15 0 8 5 15 10 15 6 0 10
11 10 25 0 24 -2 25 -65 25 -62 0 -65 -1 -65 -24 0 -13 8 -27 17 -30 15 -6 15
-8 3 -16 -21 -13 -77 -12 -86 1 -4 7 1 16 10 21 9 5 16 18 16 28 0 18 -7 20
-65 20 -62 0 -65 -1 -65 -24 0 -13 5 -26 12 -28 23 -8 -4 -28 -37 -28 -33 0
-60 20 -37 28 7 2 12 15 12 28 0 23 -3 24 -65 24 -62 0 -65 -1 -65 -24 0 -13
7 -27 16 -30 8 -3 12 -10 9 -16 -8 -13 -65 -13 -85 0 -12 8 -12 10 3 16 9 3
17 17 17 30 0 23 -3 24 -65 24 -62 0 -65 -1 -65 -24 0 -13 5 -26 12 -28 23 -8
-4 -28 -37 -28 -33 0 -60 20 -37 28 7 2 12 15 12 28 0 24 -1 25 -80 23 -77 -2
-80 -3 -80 -25 0 -13 5 -24 10 -24 6 0 10 7 10 15 0 12 5 10 20 -5 26 -26 18
-40 -25 -40 -33 0 -60 20 -37 28 7 2 12 15 12 28 0 21 -4 24 -39 24 -21 0 -44
-6 -50 -14z m426 -138 c15 -14 23 -33 23 -55 0 -29 -3 -33 -25 -33 -15 0 -25
6 -25 14 0 21 -28 46 -45 40 -9 -4 -15 -19 -15 -40 0 -27 11 -46 55 -94 52
-56 55 -63 55 -110 0 -41 -5 -56 -25 -75 -24 -25 -73 -33 -110 -19 -20 8 -45
56 -45 89 0 21 5 25 29 25 25 0 30 -4 33 -27 2 -22 8 -28 28 -28 21 0 26 5 28
31 2 25 -5 39 -43 77 -77 78 -94 158 -44 208 27 27 95 26 126 -3z m125 -145
l3 -168 27 -3 28 -3 2 168 3 168 28 3 27 3 0 -176 c0 -173 0 -176 -25 -200
-30 -31 -92 -34 -126 -6 -23 19 -24 24 -27 200 l-3 181 30 0 31 0 2 -167z
m319 138 c26 -26 29 -36 29 -90 0 -33 -5 -71 -11 -85 -12 -24 -54 -46 -90 -46
-17 0 -19 -9 -19 -75 l0 -75 -30 0 -30 0 0 200 0 200 61 0 c54 0 64 -3 90 -29z
m229 -1 c0 -29 -1 -30 -50 -30 l-50 0 0 -55 0 -55 41 0 c38 0 40 -1 37 -27 -3
-24 -8 -28 -40 -31 l-38 -3 0 -55 0 -54 50 0 c49 0 50 -1 50 -30 l0 -30 -85 0
-85 0 0 200 0 200 85 0 85 0 0 -30z m197 6 c25 -22 28 -31 28 -85 -1 -44 -6
-66 -18 -78 -16 -16 -16 -18 1 -36 12 -14 18 -41 21 -98 l3 -79 -30 0 c-34 0
-39 12 -44 110 -3 41 -5 45 -30 48 l-28 3 0 -80 0 -81 -30 0 -30 0 0 200 0
200 64 0 c54 0 70 -4 93 -24z m-889 -448 c16 -16 15 -58 -1 -58 -7 0 -18 9
-25 20 -7 12 -17 18 -22 15 -20 -12 -9 -49 25 -86 39 -43 47 -95 19 -123 -34
-35 -94 -9 -94 40 0 29 25 32 33 4 3 -11 12 -20 21 -20 27 0 18 39 -19 83 -26
30 -35 50 -35 77 0 44 14 60 55 60 17 0 36 -5 43 -12z m152 -8 c0 -13 -7 -20
-20 -20 -19 0 -20 -7 -20 -110 0 -103 -1 -110 -20 -110 -19 0 -20 7 -20 110 0
103 -1 110 -20 110 -13 0 -20 7 -20 20 0 18 7 20 60 20 53 0 60 -2 60 -20z
m61 -32 l16 -53 15 50 c9 30 22 51 32 53 21 4 20 -9 -4 -85 -10 -34 -21 -85
-24 -113 -5 -59 -9 -65 -31 -57 -11 5 -15 20 -15 56 0 27 -9 78 -20 113 -24
78 -25 88 -2 88 12 0 22 -15 33 -52z m139 -58 l0 -110 35 0 c28 0 35 -4 35
-20 0 -18 -7 -20 -55 -20 l-55 0 0 130 c0 123 1 130 20 130 19 0 20 -7 20
-110z m198 88 c3 -15 -4 -18 -32 -18 -34 0 -36 -2 -36 -35 0 -31 3 -35 25 -35
16 0 25 -6 25 -15 0 -9 -9 -15 -25 -15 -22 0 -25 -4 -25 -39 0 -37 2 -40 33
-43 20 -2 32 -8 32 -18 0 -12 -13 -15 -55 -15 l-55 0 -3 114 c-1 63 0 121 3
128 8 22 109 13 113 -9z m112 -75 c0 -103 8 -130 34 -120 13 5 16 24 16 112 0
96 2 106 18 103 14 -3 17 -16 20 -86 5 -138 -18 -184 -84 -168 -34 9 -44 42
-44 150 0 94 3 106 27 106 10 0 13 -23 13 -97z m212 80 c12 -11 18 -30 18 -61
0 -52 -21 -82 -57 -82 -21 0 -23 -4 -23 -50 0 -43 -3 -50 -20 -50 -19 0 -20 7
-20 130 l0 130 42 0 c24 0 49 -7 60 -17z m-648 -319 c12 -12 16 -38 16 -113 0
-113 -5 -121 -75 -129 l-45 -5 0 132 0 131 44 0 c27 0 51 -6 60 -16z m149 -91
c22 -138 22 -155 0 -151 -10 2 -19 13 -21 26 -5 32 -48 30 -56 -3 -7 -28 -36
-34 -36 -7 0 17 29 207 36 230 2 6 16 12 32 12 28 0 28 0 45 -107z m78 90 c0
-10 6 -36 13 -58 l13 -40 13 58 c10 44 17 57 32 57 23 0 23 2 -7 -99 -14 -47
-25 -102 -25 -124 0 -31 -3 -38 -17 -35 -14 2 -19 17 -25 68 -3 36 -15 93 -26
128 l-20 62 24 0 c16 0 24 -6 25 -17z m203 1 c9 -8 16 -24 16 -35 0 -26 -36
-25 -43 1 -3 13 -10 18 -21 14 -25 -10 -19 -35 19 -74 46 -47 56 -99 26 -129
-26 -26 -55 -27 -81 -1 -11 11 -20 29 -20 40 0 13 7 20 20 20 14 0 20 -7 20
-21 0 -14 5 -19 17 -17 30 6 26 35 -11 75 -44 49 -54 85 -32 118 19 29 66 34
90 9z m-21 -341 c-35 -2 -91 -2 -125 0 -35 2 -7 3 62 3 69 0 97 -1 63 -3z
m-160 -20 c-7 -2 -19 -2 -25 0 -7 3 -2 5 12 5 14 0 19 -2 13 -5z m-50 -10 c-7
-2 -21 -2 -30 0 -10 3 -4 5 12 5 17 0 24 -2 18 -5z m120 -10 c-13 -2 -33 -2
-45 0 -13 2 -3 4 22 4 25 0 35 -2 23 -4z m387 -158 l0 -115 -530 0 -530 0 0
115 0 115 530 0 530 0 0 -115z"/>
<path d="M4240 2965 l0 -66 28 3 c26 3 27 5 27 63 0 58 -1 60 -27 63 l-28 3 0
-66z"/>
<path d="M4660 2970 c0 -61 0 -61 28 -58 26 3 27 5 27 58 0 53 -1 55 -27 58
-28 3 -28 3 -28 -58z"/>
<path d="M4680 2550 c0 -33 3 -40 20 -40 17 0 20 7 20 40 0 33 -3 40 -20 40
-17 0 -20 -7 -20 -40z"/>
<path d="M4030 2179 c0 -81 2 -90 18 -87 14 3 17 17 20 91 3 82 2 87 -18 87
-19 0 -20 -6 -20 -91z"/>
<path d="M4187 2211 c-11 -51 -8 -71 8 -71 16 0 18 23 6 75 l-7 30 -7 -34z"/>
<path d="M4048 1758 c-2 -35 -6 -42 -20 -40 -22 4 -24 -16 -3 -24 26 -10 45
16 45 62 0 56 -18 57 -22 2z"/>
<path d="M4100 1757 c0 -62 30 -86 64 -51 17 17 22 94 7 94 -6 0 -11 -19 -13
-42 -2 -30 -8 -43 -18 -43 -10 0 -16 13 -18 43 -4 55 -22 55 -22 -1z"/>
<path d="M4209 1795 c-3 -2 -4 -26 -3 -52 2 -46 3 -48 33 -51 17 -2 31 1 31 7
0 6 -9 11 -20 11 -17 0 -20 7 -20 45 0 40 -7 54 -21 40z"/>
<path d="M4320 1770 c0 -24 4 -30 17 -28 10 2 19 -5 21 -16 3 -15 0 -18 -18
-13 -14 3 -20 1 -17 -6 6 -19 33 -19 51 -1 21 20 17 36 -12 49 -27 12 -28 25
-2 25 11 0 20 5 20 10 0 6 -13 10 -30 10 -27 0 -30 -3 -30 -30z"/>
<path d="M4467 1793 c-4 -3 -7 -17 -7 -30 0 -22 9 -27 37 -24 8 1 10 -5 7 -14
-3 -8 -16 -15 -27 -15 -16 0 -18 -3 -10 -11 30 -30 75 32 55 76 -11 23 -40 33
-55 18z m33 -28 c0 -8 -4 -15 -10 -15 -5 0 -10 7 -10 15 0 8 5 15 10 15 6 0
10 -7 10 -15z"/>
<path d="M4408 1733 c6 -2 18 -2 25 0 6 3 1 5 -13 5 -14 0 -19 -2 -12 -5z"/>
<path d="M3732 3198 c2 -13 8 -23 13 -23 6 0 11 10 13 23 2 15 -2 22 -13 22
-11 0 -15 -7 -13 -22z"/>
<path d="M3910 3195 c0 -14 5 -25 10 -25 6 0 10 11 10 25 0 14 -4 25 -10 25
-5 0 -10 -11 -10 -25z"/>
<path d="M4082 3198 c2 -13 8 -23 13 -23 6 0 11 10 13 23 2 15 -2 22 -13 22
-11 0 -15 -7 -13 -22z"/>
<path d="M4260 3195 c0 -14 5 -25 10 -25 6 0 10 11 10 25 0 14 -4 25 -10 25
-5 0 -10 -11 -10 -25z"/>
<path d="M4430 3194 c0 -31 23 -28 28 4 2 15 -2 22 -12 22 -11 0 -16 -9 -16
-26z"/>
<path d="M4602 3198 c2 -13 8 -23 13 -23 6 0 11 10 13 23 2 15 -2 22 -13 22
-11 0 -15 -7 -13 -22z"/>
<path d="M4780 3195 c0 -14 5 -25 10 -25 6 0 10 11 10 25 0 14 -4 25 -10 25
-5 0 -10 -11 -10 -25z"/>
<path d="M4952 3198 c2 -13 8 -23 13 -23 6 0 11 10 13 23 2 15 -2 22 -13 22
-11 0 -15 -7 -13 -22z"/>
<path d="M785 3200 c3 -5 8 -10 11 -10 2 0 4 5 4 10 0 6 -5 10 -11 10 -5 0 -7
-4 -4 -10z"/>
<path d="M12090 3194 c0 -2 6 -14 13 -25 10 -17 10 -23 0 -26 -7 -3 -13 -11
-13 -18 0 -11 10 -10 50 3 28 9 50 21 50 27 0 6 -22 18 -50 27 -27 9 -50 14
-50 12z m67 -40 c-3 -3 -12 -4 -19 -1 -8 3 -5 6 6 6 11 1 17 -2 13 -5z"/>
<path d="M660 3171 c0 -5 9 -7 20 -4 11 3 20 7 20 9 0 2 -9 4 -20 4 -11 0 -20
-4 -20 -9z"/>
<path d="M12092 3073 c3 -26 7 -28 51 -31 28 -2 47 1 47 7 0 6 -18 11 -41 11
-36 0 -40 2 -34 20 5 14 2 20 -10 20 -12 0 -15 -7 -13 -27z"/>
<path d="M9310 3020 c0 -5 5 -10 10 -10 6 0 10 5 10 10 0 6 -4 10 -10 10 -5 0
-10 -4 -10 -10z"/>
<path d="M8434 3009 c-65 -19 -138 -139 -105 -172 6 -6 11 -19 11 -30 0 -34
18 -7 24 37 4 25 15 55 24 66 19 24 94 44 125 34 44 -14 91 -97 85 -151 -3
-23 0 -33 10 -33 7 0 10 -4 7 -10 -3 -5 -1 -10 5 -10 6 0 11 10 10 23 -3 35 1
44 9 22 5 -12 4 -28 -2 -40 -13 -23 -15 -40 -23 -146 l-5 -75 30 0 c26 0 28 2
20 18 -6 11 -6 18 0 18 5 0 7 9 4 20 -4 14 1 22 18 28 14 6 18 11 11 16 -13 8
20 63 48 80 8 5 35 29 61 53 35 32 48 40 57 31 9 -9 12 -9 12 -1 0 6 3 18 6
26 3 9 -3 16 -15 20 -12 3 -24 15 -29 26 -7 21 -8 21 -24 2 -11 -13 -13 -21
-5 -24 6 -2 3 -6 -6 -10 -16 -6 -17 -2 -11 28 l6 35 -32 -16 c-18 -10 -36 -29
-42 -45 -5 -16 -14 -29 -20 -29 -5 0 -6 -9 -3 -20 3 -11 2 -20 -4 -20 -12 0
-27 48 -36 112 -8 59 -33 91 -96 123 -53 26 -75 29 -125 14z"/>
<path d="M12102 3012 c-8 -5 -12 -22 -10 -38 3 -26 6 -29 42 -29 46 0 68 24
50 53 -12 19 -61 27 -82 14z m66 -34 c3 -14 -3 -18 -27 -18 -25 0 -31 4 -31
21 0 16 5 20 27 17 17 -2 29 -10 31 -20z"/>
<path d="M9323 2966 c-9 -20 -21 -36 -25 -36 -5 0 -6 -4 -3 -10 3 -5 -1 -10
-10 -10 -10 0 -15 5 -12 14 4 10 -5 13 -34 12 -30 0 -36 -3 -26 -11 10 -7 12
-17 6 -34 -5 -12 -7 -27 -3 -32 3 -5 1 -9 -5 -9 -6 0 -13 -11 -17 -25 -7 -29
-12 -31 -28 -10 -7 9 -19 12 -34 9 -28 -8 -23 -30 7 -27 11 2 21 -2 21 -7 0
-11 -21 -13 -45 -4 -18 7 -40 51 -36 72 2 9 -4 12 -17 8 -11 -4 -30 -2 -43 2
-13 5 -40 7 -59 4 l-35 -6 39 -6 c45 -6 54 -20 31 -44 -9 -9 -15 -22 -12 -28
5 -17 -20 -41 -33 -33 -6 4 -8 11 -5 16 4 5 -5 9 -19 9 -30 0 -34 -15 -9 -29
10 -5 15 -13 10 -17 -4 -4 -16 1 -27 11 -28 25 -25 2 3 -31 14 -16 35 -28 50
-28 28 -2 37 9 15 17 -7 2 -10 7 -6 11 3 4 30 0 59 -8 63 -19 62 -19 53 -5 -3
6 -20 17 -38 25 l-31 13 28 1 c16 0 26 4 22 10 -15 24 89 1 106 -23 4 -5 10
-4 13 2 4 6 12 11 19 11 6 0 2 -6 -9 -14 -18 -14 -18 -15 6 -24 24 -10 24 -10
-11 -17 -22 -4 -45 -2 -57 4 -27 14 -32 14 -32 -3 0 -19 45 -47 64 -40 8 3 23
1 33 -6 16 -10 15 -10 -4 -5 -17 5 -23 2 -23 -9 0 -11 -9 -16 -30 -16 -21 0
-30 -5 -30 -16 0 -12 -6 -15 -22 -9 -13 4 -33 6 -45 6 -12 0 -25 4 -28 9 -3 6
-15 10 -26 10 -10 0 -18 3 -18 8 1 4 1 17 0 30 -1 28 -31 30 -31 1 0 -11 4
-18 9 -14 5 3 12 1 16 -5 3 -5 0 -10 -7 -10 -10 0 -10 -2 -1 -8 7 -4 9 -13 4
-21 -7 -10 -14 -10 -40 3 -17 9 -31 14 -31 12 0 -13 66 -64 75 -58 6 4 4 0 -5
-8 -15 -14 -15 -18 2 -45 10 -17 18 -38 18 -48 0 -10 10 -22 23 -27 12 -5 16
-9 8 -9 -9 -1 -12 -11 -9 -33 7 -50 49 -202 58 -208 4 -3 13 -22 21 -42 7 -21
17 -38 21 -38 4 0 8 -7 8 -15 0 -9 11 -51 24 -93 13 -42 34 -121 46 -174 13
-54 26 -98 29 -98 3 0 7 35 9 79 3 64 -1 85 -18 119 -25 49 -20 94 13 117 26
18 57 20 57 3 0 -6 3 -8 6 -5 4 4 1 13 -6 22 -11 13 -10 14 4 9 12 -5 15 -2
11 10 -17 54 -16 53 -31 26 -14 -25 -14 -24 -12 15 2 25 -1 40 -9 40 -6 0 -15
3 -19 8 -18 18 -30 5 -26 -28 4 -31 1 -35 -18 -35 -17 0 -21 4 -15 18 4 9 9
34 12 56 6 37 5 38 -18 31 l-24 -7 24 26 c31 33 36 33 51 -4 14 -33 20 -36 38
-18 20 20 14 38 -12 38 -14 0 -27 4 -31 9 -8 14 24 88 41 95 13 5 13 9 0 28
-12 18 -14 45 -11 112 5 111 15 176 25 176 10 0 26 -104 22 -140 -2 -14 -8
-29 -13 -34 -5 -6 -9 -14 -9 -18 0 -4 9 1 21 13 11 11 24 17 27 13 4 -3 1 -9
-5 -11 -16 -6 -17 -24 -2 -21 24 6 19 -22 -5 -33 -32 -15 -34 -37 -4 -48 42
-15 70 35 72 132 0 26 3 47 6 47 3 0 6 20 6 44 1 32 -2 42 -10 35 -64 -54 -83
-65 -54 -31 25 28 28 71 6 83 -10 5 -16 15 -12 20 4 7 10 7 16 1 6 -6 18 -5
34 2 28 13 33 60 9 74 -10 5 -13 15 -9 25 3 9 9 15 13 12 4 -2 3 11 -3 31
l-11 34 -8 -30 c-4 -16 -12 -30 -17 -30 -4 0 -10 -7 -12 -15 -2 -10 -8 -12
-17 -6 -12 8 -12 16 -1 56 12 44 15 46 41 41 29 -6 39 10 39 66 0 41 -18 43
-37 4z m-96 -188 c-3 -8 -6 -5 -6 6 -1 11 2 17 5 13 3 -3 4 -12 1 -19z m29
-65 c-18 -33 -21 -17 -5 24 6 15 13 23 16 16 2 -6 -3 -24 -11 -40z m77 24 c3
-7 -3 -13 -14 -13 -13 0 -15 3 -7 13 6 7 12 13 13 13 2 0 5 -6 8 -13z m-43
-107 c12 -8 11 -10 -7 -10 -13 0 -23 5 -23 10 0 13 11 13 30 0z m42 -52 c-7
-7 -12 -8 -12 -2 0 14 12 26 19 19 2 -3 -1 -11 -7 -17z m-302 -28 c13 -9 13
-10 0 -10 -8 0 -22 5 -30 10 -13 9 -13 10 0 10 8 0 22 -5 30 -10z m260 6 c0
-3 -4 -8 -10 -11 -5 -3 -10 -1 -10 4 0 6 5 11 10 11 6 0 10 -2 10 -4z m-122
-54 c11 -31 10 -32 -11 -21 -32 17 -39 32 -20 46 19 15 17 17 31 -25z m-184
13 c-6 -16 -24 -21 -24 -7 0 11 11 22 21 22 5 0 6 -7 3 -15z m49 -18 c-3 -5
-10 -4 -15 1 -6 6 -7 16 -3 22 6 9 9 9 16 -1 4 -7 5 -17 2 -22z m51 -9 c-5 -7
-2 -9 9 -5 9 3 18 -1 21 -10 4 -9 14 -13 26 -10 27 7 26 -10 -1 -18 -11 -4
-18 -13 -15 -20 5 -13 -14 -25 -40 -25 -21 0 -17 17 6 23 20 5 28 27 10 27 -5
0 -10 -4 -10 -10 0 -5 -5 -10 -11 -10 -6 0 -9 7 -5 15 3 9 0 15 -9 15 -12 0
-12 4 2 20 19 22 28 27 17 8z m3 -124 c-3 -3 -12 -4 -19 -1 -8 3 -5 6 6 6 11
1 17 -2 13 -5z m133 -8 c0 -3 -4 -8 -10 -11 -5 -3 -10 -1 -10 4 0 6 5 11 10
11 6 0 10 -2 10 -4z"/>
<path d="M12013 2910 c0 -41 2 -58 4 -37 2 20 2 54 0 75 -2 20 -4 3 -4 -38z"/>
<path d="M620 2960 c0 -5 12 -10 28 -10 l27 -1 -27 -17 c-42 -25 -35 -42 17
-42 51 0 63 20 13 21 l-33 0 33 16 c47 24 41 43 -13 43 -25 0 -45 -4 -45 -10z"/>
<path d="M9050 2950 c0 -5 5 -10 10 -10 6 0 10 5 10 10 0 6 -4 10 -10 10 -5 0
-10 -4 -10 -10z"/>
<path d="M7821 2924 c0 -11 3 -14 6 -6 3 7 2 16 -1 19 -3 4 -6 -2 -5 -13z"/>
<path d="M789 2888 c-2 -27 -1 -48 2 -48 12 0 15 24 9 60 -6 35 -6 34 -11 -12z"/>
<path d="M7005 2920 c-3 -5 -1 -10 4 -10 6 0 11 5 11 10 0 6 -2 10 -4 10 -3 0
-8 -4 -11 -10z"/>
<path d="M7796 2905 c4 -8 8 -15 10 -15 2 0 4 7 4 15 0 8 -4 15 -10 15 -5 0
-7 -7 -4 -15z"/>
<path d="M12090 2910 c0 -5 10 -10 23 -11 l22 0 -22 -16 c-34 -23 -28 -30 25
-29 46 1 47 2 50 34 l3 32 -50 0 c-28 0 -51 -4 -51 -10z m80 -26 c0 -17 -22
-14 -28 4 -2 7 3 12 12 12 9 0 16 -7 16 -16z"/>
<path d="M9170 2900 c0 -5 5 -10 11 -10 5 0 7 5 4 10 -3 6 -8 10 -11 10 -2 0
-4 -4 -4 -10z"/>
<path d="M9155 2870 c3 -5 8 -10 11 -10 2 0 4 5 4 10 0 6 -5 10 -11 10 -5 0
-7 -4 -4 -10z"/>
<path d="M620 2851 c-20 -39 20 -72 68 -57 50 16 31 76 -23 76 -24 0 -38 -6
-45 -19z m76 -12 c7 -11 -12 -29 -31 -29 -19 0 -38 18 -31 29 4 6 18 11 31 11
13 0 27 -5 31 -11z"/>
<path d="M8862 2863 c-6 -2 -10 -9 -6 -14 8 -14 21 -11 21 6 0 8 -1 15 -1 14
-1 0 -7 -3 -14 -6z"/>
<path d="M8503 2853 c9 -2 25 -2 35 0 9 3 1 5 -18 5 -19 0 -27 -2 -17 -5z"/>
<path d="M8398 2843 c7 -3 16 -2 19 1 4 3 -2 6 -13 5 -11 0 -14 -3 -6 -6z"/>
<path d="M9285 2840 c-3 -5 -1 -10 4 -10 6 0 11 5 11 10 0 6 -2 10 -4 10 -3 0
-8 -4 -11 -10z"/>
<path d="M8940 2830 c0 -5 5 -10 11 -10 5 0 7 5 4 10 -3 6 -8 10 -11 10 -2 0
-4 -4 -4 -10z"/>
<path d="M791 2674 c1 -141 3 -151 10 -89 8 64 4 234 -7 244 -2 2 -3 -67 -3
-155z"/>
<path d="M8385 2810 c-4 -6 5 -10 20 -10 15 0 24 4 20 10 -3 6 -12 10 -20 10
-8 0 -17 -4 -20 -10z"/>
<path d="M8510 2810 c0 -5 9 -10 19 -10 11 0 23 5 26 10 4 6 -5 10 -19 10 -14
0 -26 -4 -26 -10z"/>
<path d="M12094 2786 c-10 -27 1 -51 24 -54 17 -3 25 2 29 17 3 12 10 21 15
21 5 0 6 -10 3 -21 -5 -15 -3 -20 6 -17 20 7 23 43 4 58 -12 10 -18 10 -30 0
-8 -7 -15 -19 -15 -26 0 -8 -5 -14 -11 -14 -7 0 -9 10 -5 25 7 27 -11 36 -20
11z"/>
<path d="M622 2764 c-14 -24 -3 -54 19 -54 11 0 24 11 31 25 13 28 32 23 23
-6 -8 -23 10 -26 19 -3 8 20 -11 54 -30 54 -8 0 -20 -11 -26 -25 -6 -14 -15
-25 -20 -25 -5 0 -6 11 -2 25 7 28 -1 33 -14 9z"/>
<path d="M8342 2745 c0 -16 2 -22 5 -12 2 9 2 23 0 30 -3 6 -5 -1 -5 -18z"/>
<path d="M8587 2697 c-18 -42 -81 -97 -112 -97 -21 0 -81 42 -108 75 -5 5 -6
-1 -2 -15 6 -24 5 -24 -9 -6 -20 25 -20 18 -1 -25 11 -27 14 -30 15 -12 0 32
20 40 20 8 0 -15 4 -24 10 -20 6 4 10 -5 10 -20 0 -14 -4 -24 -9 -20 -13 8
-21 -8 -36 -73 -8 -34 -10 -61 -5 -66 10 -10 16 1 23 39 2 11 8 19 14 18 7 -2
15 7 19 20 7 19 9 17 15 -18 4 -22 4 -44 0 -50 -26 -35 -60 -153 -70 -245 -7
-58 -17 -121 -23 -140 -5 -20 -8 -47 -6 -60 2 -16 12 8 27 68 13 50 26 92 30
92 7 0 43 -60 47 -79 1 -7 -3 -22 -9 -32 -15 -25 -5 -32 27 -19 18 6 25 6 21
0 -3 -6 -11 -10 -16 -10 -12 0 -93 -52 -97 -62 -2 -5 -10 -8 -18 -8 -9 0 -12
-5 -9 -10 4 -6 1 -36 -6 -68 -7 -31 -11 -69 -10 -85 1 -20 -5 -30 -21 -37 -13
-5 -18 -9 -13 -10 6 0 4 -4 -3 -8 -9 -6 1 -13 28 -21 52 -16 68 -45 52 -100
-7 -21 -12 -60 -12 -85 0 -40 3 -47 18 -44 10 2 16 11 14 23 -13 94 -13 100
-3 85 6 -8 11 -26 11 -40 0 -15 6 -32 12 -38 10 -10 10 -15 -2 -22 -13 -8 -13
-11 -1 -19 9 -6 12 -20 9 -40 -2 -17 -1 -31 2 -31 4 0 10 -14 14 -31 3 -17 22
-65 42 -106 l36 -74 -29 -37 c-16 -20 -37 -50 -47 -66 -10 -16 -45 -58 -77
-92 -33 -35 -59 -67 -59 -72 0 -5 -15 -9 -32 -9 -41 0 -214 -46 -263 -69 -20
-9 -52 -37 -72 -61 l-36 -44 22 -44 c12 -25 27 -45 32 -45 6 0 8 -8 5 -18 -8
-23 32 -51 45 -30 7 10 9 10 9 0 0 -6 19 -30 41 -52 l41 -40 -313 0 c-293 1
-312 2 -285 17 16 8 57 23 90 32 60 16 61 16 68 60 11 65 20 64 16 -2 -3 -54
-2 -58 17 -51 11 3 53 10 93 14 91 9 101 18 73 63 -29 47 -35 125 -22 300 l10
148 53 60 c42 47 72 70 143 105 49 25 106 57 125 71 51 38 110 95 110 108 0 5
-4 3 -10 -5 -10 -17 -11 -15 -29 55 -10 37 -6 162 6 195 3 8 7 22 8 30 1 8 6
23 10 33 5 12 3 17 -8 17 -16 0 -20 10 -32 67 -7 34 -3 34 -100 13 -27 -6 -79
-14 -115 -17 -36 -3 -70 -9 -76 -14 -7 -6 -29 -6 -55 0 -53 12 -126 8 -141 -7
-8 -8 -17 -8 -31 0 -17 9 -24 6 -43 -16 -13 -14 -27 -26 -32 -26 -5 0 -14 -11
-20 -25 -12 -26 -46 -194 -57 -280 -17 -132 -107 -405 -168 -507 -29 -49 -30
-88 -2 -88 11 0 13 -8 9 -30 -4 -16 -5 -30 -3 -30 2 0 19 4 37 9 26 8 32 7 32
-5 0 -8 5 -12 10 -9 12 8 97 -44 105 -64 4 -9 -6 -24 -25 -39 -16 -13 -28 -28
-25 -33 4 -5 2 -9 -3 -9 -16 0 -45 -51 -35 -61 6 -6 25 11 49 43 35 48 82 84
93 73 2 -3 -16 -22 -40 -43 l-43 -39 33 5 c41 6 35 -10 -11 -28 -18 -8 -52
-31 -75 -52 l-43 -38 -3450 0 -3450 0 2 -194 3 -193 5866 -6 c5557 -6 5867 -6
5874 11 3 9 5 99 4 199 l-2 183 -2021 2 c-1112 0 -1983 4 -1936 8 81 6 140 24
140 41 0 5 14 16 31 24 29 15 30 18 16 39 -11 16 -12 27 -5 40 22 39 47 54
104 61 85 10 90 15 98 84 4 33 25 115 47 182 30 90 43 149 49 223 4 56 13 113
19 129 7 17 7 36 1 51 -5 13 -6 27 -2 32 4 4 1 4 -5 0 -8 -4 -13 -2 -13 5 0 8
-17 10 -57 7 -51 -4 -62 -2 -97 23 -26 19 -33 29 -21 29 15 0 17 9 13 80 l-3
80 32 0 c36 0 40 5 20 29 -16 19 -41 101 -33 109 3 3 6 0 6 -7 0 -7 5 -9 10
-6 6 3 10 -2 11 -12 0 -14 2 -15 6 -3 9 22 26 31 36 17 6 -8 7 -6 3 5 -3 10
-1 20 4 23 6 4 10 -1 10 -9 0 -9 5 -16 10 -16 6 0 10 -5 10 -12 0 -6 7 -19 16
-29 10 -11 16 -42 19 -90 2 -52 8 -76 19 -85 18 -12 22 -44 6 -44 -14 0 -13
-37 2 -46 6 -4 17 0 23 10 10 13 18 14 39 6 15 -5 25 -14 22 -19 -5 -8 54 -61
68 -61 15 0 3 18 -19 30 -28 15 -33 30 -9 30 13 0 12 5 -6 31 -12 16 -25 27
-28 24 -4 -3 0 -10 8 -15 11 -7 11 -10 2 -10 -19 0 -26 28 -12 45 10 12 9 16
-6 22 -26 10 -44 29 -44 47 0 13 15 16 90 16 54 0 90 4 90 10 0 6 8 5 20 -2
17 -11 22 -10 30 2 5 8 10 24 10 35 0 15 2 17 9 6 14 -21 24 5 11 29 -12 22
-30 18 -30 -6 0 -8 -9 -14 -20 -14 -12 0 -17 5 -14 14 3 8 1 17 -5 21 -6 3
-11 12 -11 18 0 9 2 9 8 0 10 -16 52 -5 52 13 0 8 -13 40 -30 72 -53 101 -118
246 -135 302 -37 120 -55 168 -84 230 -32 67 -83 130 -106 130 -8 0 -17 9 -20
21 -4 11 -9 18 -12 16 -2 -3 1 -15 7 -27 15 -28 6 -36 -24 -21 -18 10 -29 10
-44 2 -17 -9 -23 -8 -31 6 -8 15 -10 16 -15 3 -3 -8 -17 -50 -31 -94 -28 -85
-54 -140 -55 -116 0 12 -2 12 -9 2 -19 -30 -31 44 -29 170 l3 127 27 7 c16 3
33 13 39 22 7 12 12 14 15 5 3 -7 11 -13 18 -13 9 0 14 20 15 62 1 33 4 65 7
70 3 4 3 8 0 8 -3 0 -12 -15 -19 -33z m23 -607 c-25 -4 -49 -4 -54 1 -6 5 12
8 45 8 l54 -2 -45 -7z m-23 -59 c26 -6 69 -13 96 -16 26 -3 47 -9 47 -13 -1
-14 -72 -42 -106 -42 -28 0 -103 28 -123 46 -6 5 20 34 30 34 4 0 30 -4 56 -9z
m45 -105 c11 -12 15 -12 30 1 27 24 34 9 36 -74 2 -55 -1 -74 -8 -63 -5 8 -10
23 -10 33 0 9 -6 16 -12 15 -16 -4 -11 34 5 44 8 5 7 8 -3 8 -11 1 -10 4 4 15
23 17 14 20 -14 5 -22 -12 -46 -4 -54 16 -7 18 9 18 26 0z m355 -24 c19 -20
16 -32 -9 -31 -13 0 -17 3 -10 6 10 4 10 10 -2 28 -8 12 -12 26 -8 29 4 4 9 1
11 -6 2 -7 10 -19 18 -26z m-167 -103 c0 -6 -4 -7 -10 -4 -5 3 -10 11 -10 16
0 6 5 7 10 4 6 -3 10 -11 10 -16z m-180 -54 c0 -14 -6 -25 -14 -25 -9 0 -12 8
-8 25 2 14 8 25 13 25 5 0 9 -11 9 -25z m-49 -28 c-6 -6 -11 -19 -11 -29 0
-25 -37 -23 -50 3 -7 11 -10 22 -8 23 29 24 92 26 69 3z m429 -58 c0 -6 -7 -6
-20 1 -11 6 -20 15 -20 21 0 6 7 6 20 -1 11 -6 20 -15 20 -21z m-540 -94 c0
-8 13 -30 30 -48 l29 -34 -27 2 c-40 3 -42 4 -42 21 0 9 -5 12 -12 8 -7 -5 -9
-2 -5 9 3 9 1 18 -6 21 -9 5 -9 7 1 12 6 3 12 12 12 20 0 9 5 12 10 9 6 -3 10
-13 10 -20z m-7004 -1131 c96 -46 99 -200 5 -249 -17 -8 -49 -15 -72 -15 -147
0 -190 195 -58 262 42 22 81 23 125 2z m3900 -19 c44 -28 81 -129 59 -159 -17
-23 -29 -5 -31 47 -3 49 -27 85 -71 103 -71 30 -143 -21 -143 -101 0 -80 72
-131 143 -102 19 8 38 20 41 26 10 16 26 14 26 -3 0 -30 -50 -56 -106 -56 -48
0 -59 4 -92 34 -36 33 -37 37 -37 100 0 60 3 68 31 97 50 49 118 55 180 14z
m-929 -177 c-1 -40 -3 -10 -3 67 0 77 1 110 3 73 2 -37 2 -100 0 -140z m3930
19 c-2 -34 -3 -6 -3 63 0 69 1 97 3 63 2 -35 2 -91 0 -126z m1065 146 c22 -22
32 -43 35 -77 11 -91 -43 -156 -129 -156 -64 0 -103 23 -129 77 -28 58 -18
106 33 157 37 38 39 38 99 34 51 -4 65 -9 91 -35z m-4102 -43 c0 -5 -5 -10
-11 -10 -8 0 -7 -5 1 -15 11 -13 8 -20 -18 -43 -23 -20 -28 -32 -22 -42 21
-33 9 -44 -15 -15 -30 36 -32 55 -6 55 11 0 23 5 26 10 4 6 -5 10 -19 10 -14
0 -26 5 -26 10 0 6 12 10 26 10 14 0 23 4 19 10 -3 6 -15 10 -26 10 -10 0 -19
5 -19 10 0 6 20 10 45 10 25 0 45 -4 45 -10z m-3405 -40 c0 -28 -4 -35 -20
-35 -13 0 -21 8 -23 23 -5 34 5 54 25 50 13 -2 18 -13 18 -38z m235 20 c37
-37 14 -110 -35 -110 -54 0 -72 100 -22 120 32 13 35 12 57 -10z m290 -6 c0
-2 -10 -2 -23 1 -30 8 -49 -15 -45 -52 2 -22 9 -29 31 -31 19 -2 27 1 27 12 0
9 -7 16 -15 16 -8 0 -15 5 -15 10 0 6 9 10 21 10 17 0 20 -5 17 -32 -2 -26 -8
-34 -26 -36 -66 -10 -86 100 -22 120 14 5 50 -8 50 -18z m728 10 c42 -29 21
-114 -28 -114 -49 0 -70 85 -28 114 12 9 25 16 28 16 3 0 16 -7 28 -16z m362
-4 c0 -5 -8 -6 -18 -3 -25 6 -44 -20 -40 -54 2 -23 8 -28 30 -28 15 -1 30 -4
33 -7 10 -10 -33 -20 -55 -13 -40 13 -38 99 3 114 23 9 47 4 47 -9z m190 1 c0
-4 -10 -7 -21 -7 -33 1 -32 -17 1 -36 33 -19 38 -39 16 -58 -17 -13 -58 -10
-63 6 -2 7 8 9 27 6 40 -6 40 17 0 40 -36 20 -39 45 -7 57 23 9 47 4 47 -8z
m2050 -7 c0 -2 -11 -2 -24 2 -37 9 -41 -14 -7 -34 54 -30 30 -86 -29 -67 -32
10 -23 25 10 19 23 -5 30 -3 30 9 0 9 -9 19 -20 22 -39 12 -46 55 -10 67 14 5
50 -8 50 -18z m864 20 c23 -9 20 -21 -5 -20 -33 1 -32 -17 1 -36 33 -19 38
-39 16 -58 -17 -13 -58 -10 -63 6 -2 7 8 9 27 6 40 -6 40 17 0 40 -34 19 -39
42 -12 57 21 13 17 12 36 5z m146 -23 c0 -9 -5 -22 -12 -29 -9 -9 -9 -15 1
-24 10 -11 15 -10 25 5 18 24 29 21 16 -4 -8 -13 -8 -24 -2 -32 8 -9 -1 -12
-33 -14 -53 -2 -76 18 -57 48 7 10 12 30 12 43 0 25 15 37 38 28 6 -2 12 -12
12 -21z m830 3 c0 -2 -11 -2 -24 2 -37 9 -41 -14 -7 -34 54 -30 30 -86 -29
-67 -32 10 -23 25 10 19 23 -5 30 -3 30 9 0 9 -9 19 -20 22 -39 12 -46 55 -10
67 14 5 50 -8 50 -18z m2254 3 c8 -12 8 -22 0 -34 -17 -27 -33 -27 -45 1 -9
20 -9 29 1 41 15 18 29 16 44 -8z m25 -46 c-18 -33 -35 -58 -37 -56 -2 2 11
31 29 64 18 33 35 58 37 56 2 -2 -11 -31 -29 -64z m191 50 c0 -4 -10 -7 -21
-7 -34 1 -33 -20 1 -34 51 -21 29 -80 -25 -66 -36 9 -31 27 5 20 23 -5 30 -3
30 9 0 9 -9 18 -19 22 -42 13 -50 59 -13 68 20 4 42 -2 42 -12z m210 -1 c0 -5
-8 -6 -18 -3 -25 6 -44 -20 -40 -54 2 -23 8 -28 30 -28 15 -1 30 -4 33 -7 10
-10 -33 -20 -55 -13 -40 13 -38 99 3 114 23 9 47 4 47 -9z m1210 -1 c0 -5 -11
-7 -25 -3 -19 5 -25 2 -25 -9 0 -9 9 -18 19 -22 32 -10 44 -31 31 -55 -8 -15
-19 -20 -37 -18 -15 2 -28 8 -30 14 -2 7 8 9 27 6 39 -6 39 13 0 33 -33 17
-40 49 -14 63 19 11 54 4 54 -9z m-9860 -39 c0 -27 5 -50 10 -50 6 0 10 -4 10
-10 0 -5 -17 -10 -37 -10 -34 1 -36 2 -20 14 19 15 24 86 6 86 -5 0 -7 5 -4
10 3 6 13 10 21 10 10 0 14 -13 14 -50z m114 18 c20 -57 -29 -115 -61 -72 -16
22 -17 58 -2 85 15 29 51 21 63 -13z m85 18 c17 -20 10 -87 -11 -99 -26 -17
-48 9 -48 58 0 23 3 45 7 48 11 12 40 8 52 -7z m112 -33 c-10 -21 -27 -47 -36
-58 -9 -11 -2 8 16 43 18 34 34 60 36 58 3 -2 -5 -21 -16 -43z m313 41 c19 -7
21 -35 4 -52 -9 -9 -9 -18 0 -37 7 -16 8 -25 2 -25 -6 0 -16 11 -22 25 -15 33
-38 32 -38 -1 0 -14 -4 -23 -10 -19 -5 3 -10 31 -10 61 0 53 1 54 29 54 16 0
36 -3 45 -6z m56 -54 c0 -33 -4 -60 -10 -60 -6 0 -10 27 -10 60 0 33 4 60 10
60 6 0 10 -27 10 -60z m170 0 c0 -33 -4 -60 -10 -60 -6 0 -10 27 -10 60 0 33
4 60 10 60 6 0 10 -27 10 -60z m64 43 c4 -10 14 -28 24 -41 18 -23 18 -23 14
18 -3 25 0 40 7 40 7 0 11 -23 11 -60 0 -33 -4 -60 -8 -60 -5 0 -21 21 -35 48
l-27 47 0 -47 c0 -27 -4 -48 -10 -48 -6 0 -10 27 -10 60 0 45 3 60 14 60 8 0
17 -8 20 -17z m151 -24 c24 -69 26 -79 16 -79 -5 0 -13 9 -16 20 -4 11 -15 20
-27 20 -11 0 -22 -8 -25 -20 -4 -16 -23 -30 -23 -16 0 3 20 64 35 104 8 22 28
8 40 -29z m60 -9 c-2 -46 -1 -50 21 -50 12 0 26 -4 29 -10 4 -6 -8 -10 -29
-10 l-36 0 0 60 c0 33 4 60 9 60 4 0 7 -22 6 -50z m190 30 c8 -25 -10 -50 -36
-50 -11 0 -20 -4 -20 -10 -1 -5 -2 -14 -3 -19 0 -5 -4 -13 -8 -17 -5 -4 -8 20
-8 54 l0 62 34 0 c26 0 36 -5 41 -20z m110 1 c3 -11 0 -29 -7 -40 -10 -16 -10
-23 0 -33 15 -15 16 -28 2 -28 -6 0 -16 11 -22 25 -6 14 -17 25 -25 25 -7 0
-13 -11 -13 -25 0 -14 -4 -25 -10 -25 -6 0 -10 27 -10 60 l0 60 39 0 c30 0 41
-5 46 -19z m229 3 c36 -35 3 -104 -49 -104 -24 0 -25 3 -25 60 0 60 0 60 29
60 16 0 37 -7 45 -16z m58 -31 c3 -41 6 -48 26 -51 20 -3 22 0 22 47 0 28 5
51 10 51 14 0 12 -94 -2 -108 -35 -35 -78 1 -78 64 0 59 18 56 22 -3z m271 40
c-21 -4 -23 -10 -23 -59 0 -30 -4 -54 -10 -54 -5 0 -10 24 -10 54 0 44 -4 55
-17 59 -10 3 5 5 32 4 28 0 40 -2 28 -4z m1914 0 c-35 -5 -33 -34 3 -44 l25
-7 -27 -1 c-21 -1 -28 -6 -28 -21 0 -16 7 -20 30 -20 17 0 30 -4 30 -10 0 -5
-18 -10 -40 -10 l-40 0 0 60 0 60 38 -1 c31 -2 32 -3 9 -6z m118 -33 c24 -70
26 -80 16 -80 -5 0 -13 9 -16 20 -4 11 -15 20 -27 20 -11 0 -22 -8 -25 -20 -3
-11 -9 -20 -14 -20 -12 0 -12 5 8 67 20 62 40 67 58 13z m155 13 l13 -28 11
28 c5 15 13 27 18 27 11 0 9 -11 -7 -40 -8 -14 -14 -37 -15 -52 0 -16 -4 -28
-10 -28 -5 0 -10 11 -10 24 0 13 -7 40 -15 60 -18 42 -5 49 15 9z m189 13 c12
-14 5 -46 -10 -46 -5 0 -3 -13 6 -30 9 -18 11 -30 5 -30 -6 0 -16 11 -22 25
-6 14 -17 25 -25 25 -7 0 -13 -11 -13 -25 0 -14 -4 -25 -10 -25 -6 0 -10 27
-10 60 l0 60 34 0 c18 0 39 -6 45 -14z m79 7 c-36 -5 -40 -42 -5 -44 l22 -2
-22 -4 c-33 -6 -31 -43 2 -43 14 0 25 -4 25 -10 0 -5 -16 -10 -35 -10 l-35 0
0 60 0 60 38 -1 c30 -2 32 -3 10 -6z m115 0 c-21 -4 -23 -10 -23 -59 0 -30 -4
-54 -10 -54 -5 0 -10 24 -10 54 0 44 -4 55 -17 59 -10 3 5 5 32 4 28 0 40 -2
28 -4z m59 -40 c3 -40 6 -48 23 -48 17 0 20 8 23 48 4 62 22 61 22 -1 0 -53
-12 -72 -47 -72 -28 0 -43 27 -43 79 0 57 18 51 22 -6z m177 33 c9 -10 9 -20
0 -39 -8 -18 -8 -30 0 -46 8 -14 8 -21 1 -21 -6 0 -16 11 -22 25 -6 14 -17 25
-25 25 -7 0 -13 -11 -13 -25 0 -14 -4 -25 -10 -25 -6 0 -10 27 -10 60 l0 60
34 0 c18 0 39 -6 45 -14z m78 -28 l22 -43 0 43 c1 23 6 42 11 42 6 0 10 -27
10 -60 0 -33 -4 -60 -10 -60 -5 0 -20 19 -32 43 l-23 42 -3 -42 c-5 -65 -22
-51 -22 17 0 73 16 79 47 18z m450 26 c3 -9 1 -25 -6 -36 -8 -13 -8 -24 -1
-38 12 -23 13 -30 2 -30 -5 0 -15 11 -22 25 -7 14 -17 25 -22 25 -4 0 -8 -11
-8 -25 0 -14 -4 -25 -10 -25 -6 0 -10 27 -10 60 l0 60 35 0 c24 0 38 -5 42
-16z m75 9 c-40 -5 -41 -36 -2 -42 l25 -4 -25 -6 c-14 -4 -26 -15 -28 -24 -3
-13 4 -17 27 -17 17 0 31 -4 31 -10 0 -5 -18 -10 -40 -10 l-40 0 0 60 0 60 43
-2 c37 -1 38 -2 9 -5z m101 0 c-25 -3 -33 -9 -33 -24 0 -14 7 -19 25 -19 14 0
25 -4 25 -10 0 -5 -11 -10 -25 -10 -20 0 -25 -5 -25 -25 0 -14 -4 -25 -10 -25
-6 0 -10 27 -10 60 l0 60 43 -2 c36 -1 38 -2 10 -5z m67 -44 c0 -47 2 -50 23
-47 19 3 22 10 25 51 2 26 7 47 13 47 12 0 12 -76 -1 -101 -12 -21 -50 -25
-68 -7 -14 14 -16 108 -2 108 6 0 10 -23 10 -51z m147 5 l23 -39 0 43 c0 23 5
42 10 42 6 0 10 -27 10 -60 0 -33 -4 -60 -9 -60 -5 0 -21 19 -35 43 l-25 42
-1 -42 c0 -24 -4 -43 -10 -43 -6 0 -10 27 -10 61 0 71 13 74 47 13z m151 34
c17 -17 15 -68 -5 -90 -9 -10 -29 -18 -45 -18 -28 0 -28 1 -28 60 l0 60 33 0
c18 0 38 -5 45 -12z m2092 -38 c0 -27 5 -50 10 -50 6 0 10 -4 10 -10 0 -5 -16
-10 -35 -10 -19 0 -35 5 -35 10 0 6 7 10 15 10 11 0 15 11 15 40 0 22 -5 40
-11 40 -5 0 -7 5 -4 10 3 6 13 10 21 10 10 0 14 -13 14 -50z m99 36 c17 -21
10 -87 -11 -100 -14 -8 -21 -7 -34 6 -16 16 -22 77 -9 97 9 16 40 13 54 -3z
m103 -11 c25 -55 -26 -124 -59 -79 -16 22 -17 76 -1 92 20 20 48 14 60 -13z
m370 18 c-40 -5 -41 -36 -2 -42 l25 -4 -25 -6 c-14 -4 -26 -15 -28 -24 -3 -13
4 -17 27 -17 17 0 31 -4 31 -10 0 -5 -18 -10 -40 -10 l-40 0 0 60 0 60 43 -2
c37 -1 38 -2 9 -5z m180 -40 c3 -40 6 -48 23 -48 17 0 20 8 23 48 4 57 22 63
22 6 0 -52 -15 -79 -43 -79 -35 0 -47 19 -47 72 0 62 18 63 22 1z m176 18 c2
-13 -2 -27 -8 -31 -9 -6 -8 -14 5 -34 10 -15 13 -26 6 -26 -6 0 -18 11 -27 25
-9 14 -20 25 -25 25 -5 0 -9 -11 -9 -25 0 -14 -4 -25 -10 -25 -6 0 -10 27 -10
61 l0 60 38 -3 c30 -2 38 -7 40 -27z m80 22 c-36 -5 -40 -42 -5 -44 l22 -2
-22 -4 c-33 -6 -31 -43 2 -43 14 0 25 -4 25 -10 0 -5 -16 -10 -35 -10 l-35 0
0 60 0 60 38 -1 c30 -2 32 -3 10 -6z m156 1 c32 -12 11 -64 -26 -64 -13 0 -18
-8 -18 -25 0 -14 -4 -25 -10 -25 -6 0 -10 27 -10 60 0 57 1 60 24 60 13 0 31
-3 40 -6z m91 -35 c24 -69 26 -79 16 -79 -5 0 -13 9 -16 20 -4 11 -15 20 -27
20 -11 0 -22 -8 -25 -20 -4 -16 -23 -30 -23 -16 0 3 20 64 35 104 8 22 28 8
40 -29z m58 15 l13 -25 12 25 c6 14 16 26 22 26 6 0 1 -18 -10 -40 -11 -21
-20 -48 -20 -60 0 -11 -4 -20 -10 -20 -5 0 -10 14 -10 30 0 17 -7 44 -15 60
-9 17 -11 30 -6 30 6 0 16 -12 24 -26z m108 -9 c16 -43 24 -44 35 -3 17 57 34
46 34 -21 0 -34 -4 -61 -10 -61 -5 0 -10 17 -10 38 l-1 37 -15 -35 -16 -35
-18 40 -18 40 -4 -45 c-4 -40 -5 -38 -6 18 -2 69 10 80 29 27z m146 28 c-35
-5 -33 -34 3 -44 l25 -7 -27 -1 c-21 -1 -28 -6 -28 -21 0 -16 7 -20 30 -20 17
0 30 -4 30 -10 0 -5 -18 -10 -40 -10 l-40 0 0 60 0 60 38 -1 c31 -2 32 -3 9
-6z m104 -40 l27 -47 -5 47 c-4 31 -2 47 6 47 7 0 11 -22 11 -60 0 -33 -4 -60
-10 -60 -5 0 -20 19 -32 43 l-23 42 -3 -42 c-5 -65 -22 -51 -22 17 0 74 15 78
51 13z m137 40 c-14 -4 -18 -15 -18 -59 0 -30 -4 -54 -10 -54 -5 0 -10 24 -10
54 0 49 -2 55 -22 59 -13 2 0 4 27 4 28 1 42 -1 33 -4z m-9392 -87 c-8 -31
-31 -34 -46 -7 -13 25 -13 27 6 46 15 15 19 15 32 2 9 -10 12 -24 8 -41z
m7942 10 c-2 -23 -8 -31 -23 -31 -23 0 -33 38 -15 60 19 23 41 6 38 -29z"/>
<path d="M1354 409 c-30 -15 -54 -61 -54 -106 0 -100 118 -147 191 -77 75 72
27 195 -75 193 -22 0 -50 -5 -62 -10z m146 -59 c0 -10 -40 -49 -96 -93 l-26
-20 -31 31 c-36 36 -29 57 8 22 l24 -23 53 46 c54 48 68 55 68 37z"/>
<path d="M9305 406 c-35 -16 -60 -42 -69 -73 -7 -22 -5 -23 51 -25 104 -3 153
-1 160 6 12 11 -11 58 -37 77 -36 26 -70 31 -105 15z"/>
<path d="M9332 251 c-9 -5 -11 -17 -6 -35 9 -38 21 -40 28 -4 7 35 -2 51 -22
39z"/>
<path d="M1904 336 c-8 -21 3 -49 16 -41 5 3 10 15 10 25 0 25 -18 36 -26 16z"/>
<path d="M2110 319 c-9 -16 -9 -28 -1 -45 15 -33 49 -31 57 3 13 49 -34 84
-56 42z"/>
<path d="M3134 326 c-3 -8 -4 -27 -2 -43 2 -22 8 -28 28 -28 20 0 26 6 28 28
5 45 -40 80 -54 43z"/>
<path d="M6765 331 c-3 -5 -1 -12 4 -15 5 -3 11 1 15 9 6 16 -9 21 -19 6z"/>
<path d="M6750 265 c0 -9 9 -15 21 -15 18 0 19 2 9 15 -7 8 -16 15 -21 15 -5
0 -9 -7 -9 -15z"/>
<path d="M9855 338 c-4 -10 -4 -26 0 -35 6 -17 7 -17 16 0 7 11 7 23 0 35 -9
16 -10 16 -16 0z"/>
<path d="M1724 327 c-11 -29 0 -72 19 -75 16 -3 18 2 15 39 -3 43 -23 64 -34
36z"/>
<path d="M1822 328 c-21 -21 -12 -78 13 -78 17 0 25 57 11 76 -9 12 -14 12
-24 2z"/>
<path d="M2230 320 c0 -16 5 -21 23 -18 12 2 22 10 22 18 0 8 -10 16 -22 18
-18 3 -23 -2 -23 -18z"/>
<path d="M2690 300 c0 -11 5 -20 10 -20 6 0 10 9 10 20 0 11 -4 20 -10 20 -5
0 -10 -9 -10 -20z"/>
<path d="M2913 318 c4 -25 16 -31 36 -19 19 12 6 41 -19 41 -15 0 -19 -5 -17
-22z"/>
<path d="M3020 320 c0 -16 5 -21 23 -18 12 2 22 10 22 18 0 8 -10 16 -22 18
-18 3 -23 -2 -23 -18z"/>
<path d="M3260 295 c0 -46 13 -58 38 -33 17 17 15 44 -4 62 -25 26 -34 19 -34
-29z"/>
<path d="M5640 306 c0 -14 5 -26 10 -26 6 0 10 9 10 19 0 11 -4 23 -10 26 -6
4 -10 -5 -10 -19z"/>
<path d="M5960 320 c0 -16 5 -21 23 -18 12 2 22 10 22 18 0 8 -10 16 -22 18
-18 3 -23 -2 -23 -18z"/>
<path d="M6390 320 c0 -16 5 -21 23 -18 12 2 22 10 22 18 0 8 -10 16 -22 18
-18 3 -23 -2 -23 -18z"/>
<path d="M6914 320 c0 -14 7 -20 24 -20 17 0 23 5 20 18 -5 26 -44 28 -44 2z"/>
<path d="M7460 296 c0 -39 3 -46 20 -46 40 0 37 80 -4 88 -13 3 -16 -5 -16
-42z"/>
<path d="M9672 328 c-22 -22 -11 -78 14 -78 10 0 14 12 14 39 0 43 -10 57 -28
39z"/>
<path d="M9767 334 c-4 -4 -7 -25 -7 -46 0 -32 3 -39 18 -36 13 2 17 13 17 42
0 37 -13 55 -28 40z"/>
<path d="M10480 320 c0 -13 7 -20 18 -20 24 0 32 8 25 26 -8 22 -43 17 -43 -6z"/>
<path d="M10730 315 c0 -27 6 -30 29 -16 17 11 7 41 -14 41 -9 0 -15 -9 -15
-25z"/>
<path d="M10830 300 c0 -11 5 -20 10 -20 6 0 10 9 10 20 0 11 -4 20 -10 20 -5
0 -10 -9 -10 -20z"/>
<path d="M1990 265 c0 -14 4 -25 9 -25 12 0 23 29 15 41 -10 18 -24 9 -24 -16z"/>
<path d="M9934 275 c-7 -17 4 -37 17 -30 12 8 12 45 -1 45 -6 0 -13 -7 -16
-15z"/>
<path d="M9120 2711 c0 -10 30 -24 37 -17 3 3 2 9 -2 15 -8 13 -35 15 -35 2z"/>
<path d="M12170 2705 c0 -11 -11 -15 -40 -15 -22 0 -40 -4 -40 -10 0 -5 18
-10 40 -10 29 0 40 -4 40 -15 0 -8 5 -15 10 -15 6 0 10 18 10 40 0 22 -4 40
-10 40 -5 0 -10 -7 -10 -15z"/>
<path d="M8448 2699 c-27 -15 -21 -29 11 -29 34 0 51 18 30 31 -17 11 -20 11
-41 -2z"/>
<path d="M663 2683 c-54 -18 -55 -36 -2 -52 45 -14 58 -9 39 14 -10 12 -10 18
0 30 19 22 10 24 -37 8z m14 -29 c-3 -3 -12 -4 -19 -1 -8 3 -5 6 6 6 11 1 17
-2 13 -5z"/>
<path d="M9007 2640 c-3 -13 0 -23 9 -27 21 -8 23 -2 9 25 -12 23 -12 23 -18
2z"/>
<path d="M9052 2628 c5 -15 28 -18 29 -3 0 6 -7 12 -17 13 -10 3 -15 -1 -12
-10z"/>
<path d="M12090 2595 c0 -19 5 -35 10 -35 6 0 10 11 10 25 0 14 5 25 10 25 6
0 10 -9 10 -20 0 -11 5 -20 10 -20 6 0 10 9 10 20 0 11 5 20 10 20 6 0 10 -9
10 -20 0 -11 5 -20 10 -20 6 0 10 14 10 30 0 29 -1 30 -50 30 l-50 0 0 -35z"/>
<path d="M621 2573 c-1 -33 0 -33 44 -33 44 0 45 0 44 33 -1 23 -3 26 -6 10
-2 -13 -11 -23 -18 -23 -7 0 -16 10 -18 23 l-4 22 -2 -22 c0 -13 -7 -23 -15
-23 -8 0 -17 10 -19 23 -3 16 -5 13 -6 -10z"/>
<path d="M12090 2541 c0 -6 5 -11 10 -11 14 0 12 -38 -2 -43 -7 -2 -10 -7 -7
-11 8 -8 99 24 99 35 0 10 -31 24 -75 35 -15 4 -25 2 -25 -5z m60 -25 c0 -3
-4 -8 -10 -11 -5 -3 -10 -1 -10 4 0 6 5 11 10 11 6 0 10 -2 10 -4z"/>
<path d="M621 2502 c-11 -21 3 -52 25 -52 8 0 19 11 24 25 5 14 15 25 21 25 7
0 9 -9 5 -25 -4 -14 -2 -25 3 -25 13 0 20 35 9 54 -13 24 -37 20 -50 -9 -6
-14 -15 -25 -20 -25 -5 0 -6 11 -2 25 7 29 -1 33 -15 7z"/>
<path d="M12012 2455 c0 -44 2 -62 7 -50 4 11 5 43 1 70 -7 49 -7 49 -8 -20z"/>
<path d="M12090 2425 c0 -19 5 -35 10 -35 6 0 10 9 10 20 0 17 7 20 40 20 29
0 40 4 40 15 0 11 -12 15 -50 15 l-50 0 0 -35z"/>
<path d="M793 2360 c0 -47 2 -66 4 -42 2 23 2 61 0 85 -2 23 -4 4 -4 -43z"/>
<path d="M621 2368 l-1 -38 45 0 45 0 -1 38 c-1 29 -2 32 -7 14 -8 -28 -24
-30 -32 -6 -6 15 -8 14 -13 -6 -7 -27 -22 -19 -30 15 -3 11 -5 4 -6 -17z"/>
<path d="M12092 2348 c2 -25 8 -33 23 -33 11 0 24 10 30 23 14 31 27 28 19 -5
-7 -26 -6 -27 10 -14 23 20 17 55 -11 59 -17 3 -26 -3 -33 -22 -12 -33 -24
-34 -18 -1 4 17 1 25 -9 25 -10 0 -13 -10 -11 -32z"/>
<path d="M9311 2347 c-1 -15 -5 -16 -21 -7 -26 14 -26 -1 0 -18 17 -10 21 -10
26 2 3 9 4 21 1 28 -3 8 -6 6 -6 -5z"/>
<path d="M620 2301 c0 -5 9 -11 20 -14 11 -3 20 -10 20 -17 0 -7 -9 -14 -20
-17 -36 -9 -21 -23 25 -23 46 0 61 14 25 23 -11 3 -20 12 -20 21 0 9 8 16 20
16 11 0 20 5 20 10 0 6 -20 10 -45 10 -25 0 -45 -4 -45 -9z"/>
<path d="M9255 2279 c-4 -6 -13 -8 -21 -5 -8 3 -14 -1 -14 -9 0 -11 6 -12 25
-5 15 6 26 6 30 0 4 -6 13 -10 22 -10 14 0 14 3 -2 20 -20 23 -31 25 -40 9z"/>
<path d="M12097 2254 c-17 -17 -6 -55 18 -66 38 -17 77 4 73 40 -3 24 -8 27
-43 30 -23 2 -44 0 -48 -4z m73 -28 c0 -17 -18 -25 -42 -18 -30 8 -21 32 12
32 19 0 30 -5 30 -14z"/>
<path d="M621 2180 c1 -25 3 -37 6 -27 3 12 15 17 44 17 21 0 39 5 39 10 0 6
-16 10 -35 10 -22 0 -38 6 -44 18 -8 13 -10 7 -10 -28z"/>
<path d="M793 2120 c0 -47 2 -66 4 -42 2 23 2 61 0 85 -2 23 -4 4 -4 -43z"/>
<path d="M9251 2154 c0 -11 3 -14 6 -6 3 7 2 16 -1 19 -3 4 -6 -2 -5 -13z"/>
<path d="M12090 2156 c0 -9 9 -16 20 -16 11 0 20 -7 20 -15 0 -8 5 -15 10 -15
6 0 10 7 10 15 0 8 5 15 10 15 6 0 10 -9 10 -20 0 -11 5 -20 11 -20 6 0 9 14
7 33 -3 31 -5 32 -50 35 -38 2 -48 0 -48 -12z"/>
<path d="M621 2073 c-1 -33 0 -33 44 -33 25 0 45 5 45 10 0 6 -9 10 -19 10
-12 0 -21 8 -24 23 l-4 22 -2 -22 c0 -13 -7 -23 -15 -23 -8 0 -17 10 -19 23
-3 16 -5 13 -6 -10z"/>
<path d="M12170 2045 c0 -11 -11 -15 -40 -15 -22 0 -40 -4 -40 -10 0 -5 18
-10 40 -10 29 0 40 -4 40 -15 0 -8 5 -15 10 -15 6 0 10 18 10 40 0 22 -4 40
-10 40 -5 0 -10 -7 -10 -15z"/>
<path d="M621 1998 c-13 -35 4 -58 44 -58 41 0 62 28 45 60 -16 30 -78 28 -89
-2z m74 -18 c0 -18 -43 -26 -57 -12 -16 16 2 33 30 30 16 -2 27 -9 27 -18z"/>
<path d="M9280 2010 c1 -8 8 -26 16 -40 l15 -25 -6 30 c-7 33 -25 59 -25 35z"/>
<path d="M12090 1960 c0 -5 9 -10 20 -10 11 0 20 -7 20 -15 0 -8 -9 -15 -20
-15 -11 0 -20 -7 -20 -15 0 -11 12 -15 50 -15 38 0 50 4 50 15 0 8 -9 15 -20
15 -11 0 -20 7 -20 15 0 8 9 15 20 15 11 0 20 5 20 10 0 6 -22 10 -50 10 -27
0 -50 -4 -50 -10z"/>
<path d="M792 1935 c0 -16 2 -22 5 -12 2 9 2 23 0 30 -3 6 -5 -1 -5 -18z"/>
<path d="M621 1872 c-11 -21 3 -52 25 -52 8 0 19 11 26 25 13 28 32 23 23 -6
-4 -10 -2 -19 4 -19 12 0 19 28 13 53 -6 25 -41 21 -54 -8 -13 -28 -29 -25
-21 5 7 25 -3 26 -16 2z"/>
<path d="M12090 1835 c0 -19 5 -35 10 -35 6 0 10 11 10 25 0 14 5 25 10 25 6
0 10 -9 10 -20 0 -11 5 -20 10 -20 6 0 10 9 10 20 0 11 5 20 10 20 6 0 10 -11
10 -25 0 -14 5 -25 10 -25 6 0 10 16 10 35 l0 35 -50 0 -50 0 0 -35z"/>
<path d="M700 1790 c0 -17 -7 -20 -40 -20 -22 0 -40 -4 -40 -10 0 -5 20 -10
45 -10 43 0 45 1 45 30 0 17 -2 30 -5 30 -3 0 -5 -9 -5 -20z"/>
<path d="M9325 1750 c-3 -5 -2 -10 4 -10 6 0 8 -7 5 -15 -4 -10 -20 -15 -45
-15 -21 0 -39 -4 -39 -10 0 -5 22 -20 49 -33 l50 -23 6 23 c7 29 -4 93 -16 93
-4 0 -11 -4 -14 -10z"/>
<path d="M12103 1753 c-7 -2 -13 -17 -13 -33 0 -16 6 -30 13 -33 18 -6 47 11
47 28 0 8 5 15 11 15 6 0 8 -9 4 -21 -5 -15 -3 -20 6 -17 21 7 23 40 3 55 -19
14 -44 1 -44 -23 0 -8 -5 -14 -11 -14 -7 0 -9 10 -5 25 4 14 5 25 4 24 -2 0
-9 -3 -15 -6z"/>
<path d="M652 1717 c-43 -13 -38 -36 12 -54 44 -15 55 -11 36 12 -10 12 -10
19 -2 27 28 28 11 34 -46 15z m28 -21 c0 -11 -19 -15 -25 -6 -3 5 1 10 9 10 9
0 16 -2 16 -4z"/>
<path d="M9176 1691 c-14 -5 -16 -10 -8 -15 7 -4 19 0 28 8 17 17 11 19 -20 7z"/>
<path d="M794 1585 c0 -60 1 -84 3 -52 2 32 2 81 0 110 -2 29 -3 3 -3 -58z"/>
<path d="M12090 1635 c0 -19 5 -35 10 -35 6 0 10 11 10 25 0 14 5 25 10 25 6
0 10 -9 10 -20 0 -11 5 -20 10 -20 6 0 10 9 10 20 0 11 5 20 10 20 6 0 10 -11
10 -25 0 -14 5 -25 10 -25 6 0 10 16 10 35 l0 35 -50 0 -50 0 0 -35z"/>
<path d="M621 1608 l-1 -38 45 0 45 0 -1 38 c-1 31 -2 33 -8 13 -9 -33 -31
-39 -32 -9 0 20 -1 20 -8 5 -9 -25 -25 -23 -33 5 -5 18 -6 15 -7 -14z"/>
<path d="M12090 1585 c0 -3 6 -15 13 -26 10 -17 10 -23 0 -26 -7 -3 -13 -11
-13 -18 0 -11 10 -10 50 3 28 9 50 21 50 28 0 7 -21 19 -47 28 -52 18 -53 18
-53 11z m55 -35 c3 -5 1 -10 -4 -10 -6 0 -11 5 -11 10 0 6 2 10 4 10 3 0 8 -4
11 -10z"/>
<path d="M8925 1570 c-3 -6 1 -7 9 -4 18 7 21 14 7 14 -6 0 -13 -4 -16 -10z"/>
<path d="M9230 1534 c11 -47 14 -49 28 -18 8 17 9 23 1 19 -6 -4 -13 2 -16 14
-9 36 -21 23 -13 -15z"/>
<path d="M621 1520 c1 -25 3 -37 6 -27 3 12 15 17 44 17 21 0 39 5 39 10 0 6
-16 10 -35 10 -22 0 -38 6 -44 18 -8 13 -10 7 -10 -28z"/>
<path d="M8309 1494 c-2 -48 2 -86 12 -108 5 -13 6 7 3 54 -5 77 -13 105 -15
54z"/>
<path d="M8982 1502 c-9 -7 -9 -12 2 -28 18 -23 29 -15 19 14 -5 14 -13 18
-21 14z"/>
<path d="M12097 1493 c-12 -11 -8 -61 6 -66 18 -6 47 11 47 28 0 8 5 15 11 15
6 0 8 -9 4 -21 -5 -15 -3 -20 6 -17 21 7 23 40 3 55 -19 14 -44 1 -44 -23 0
-8 -5 -14 -11 -14 -7 0 -9 10 -5 25 6 24 -3 33 -17 18z"/>
<path d="M660 1455 c-11 -30 -34 -34 -25 -5 7 23 -10 28 -19 5 -9 -24 4 -45
29 -45 16 0 25 7 29 25 4 14 11 23 17 20 5 -4 7 -15 4 -26 -8 -23 10 -26 19
-3 8 20 -11 54 -30 54 -8 0 -19 -11 -24 -25z"/>
<path d="M9281 1456 c-10 -12 -10 -23 -3 -43 6 -16 25 -66 42 -113 39 -106 60
-183 52 -190 -18 -13 -7 -25 23 -27 29 -3 32 0 28 17 -4 16 0 20 18 20 19 0
21 2 9 10 -8 5 -22 7 -31 4 -10 -3 -16 1 -16 8 1 7 -4 33 -12 58 -43 151 -65
216 -72 220 -4 3 -12 16 -17 29 -7 20 -10 21 -21 7z"/>
<path d="M8271 1450 c0 -8 4 -24 9 -35 l9 -20 0 20 c0 11 -4 27 -9 35 -9 13
-10 13 -9 0z"/>
<path d="M787 1413 c-3 -15 -1 -36 3 -47 7 -16 9 -9 9 27 1 52 -4 61 -12 20z"/>
<path d="M9006 1422 c-4 -13 -5 -26 -2 -29 10 -11 18 4 14 29 l-4 23 -8 -23z"/>
<path d="M3346 1291 c-78 -108 -86 -123 -86 -165 l0 -46 85 0 c91 0 87 3 89
-55 1 -17 9 -20 54 -23 l52 -3 0 40 c0 34 3 41 20 41 17 0 20 7 20 40 0 33 -3
40 -20 40 -19 0 -20 7 -20 125 l0 125 -54 0 -54 0 -86 -119z m90 -63 c-2 -24
-5 -49 -5 -55 -1 -8 -16 -13 -42 -13 l-40 0 38 55 c21 30 41 55 46 55 4 0 5
-19 3 -42z"/>
<path d="M3691 1397 c-53 -27 -66 -60 -69 -181 -5 -142 8 -178 70 -206 81 -37
177 -17 213 43 17 27 20 51 19 152 0 133 -7 155 -57 185 -37 23 -138 27 -176
7z m108 -76 c19 -12 28 -174 12 -213 -11 -30 -47 -38 -69 -16 -19 19 -16 202
4 222 17 18 32 20 53 7z"/>
<path d="M4272 1395 c-61 -27 -78 -119 -30 -167 20 -20 20 -20 -1 -34 -28 -20
-42 -75 -30 -120 25 -89 200 -115 276 -39 28 28 33 40 33 79 0 37 -5 52 -25
72 l-25 25 20 26 c30 39 27 95 -9 135 -27 30 -34 33 -102 35 -49 2 -85 -2
-107 -12z m122 -81 c19 -18 19 -20 6 -45 -7 -12 -21 -19 -40 -19 -23 0 -31 5
-36 25 -12 47 36 73 70 39z m11 -194 c0 -33 -2 -35 -37 -38 -44 -4 -66 23 -48
59 9 16 19 19 48 17 35 -3 37 -5 37 -38z"/>
<path d="M4634 1394 c-53 -26 -64 -58 -64 -192 0 -107 2 -122 23 -153 55 -82
220 -75 264 12 18 34 17 240 -1 283 -8 20 -27 39 -49 49 -43 21 -132 22 -173
1z m107 -74 c17 -10 19 -22 19 -113 0 -56 -4 -108 -9 -115 -5 -8 -21 -12 -37
-10 l-29 3 -3 110 c-2 95 0 111 15 122 20 16 20 16 44 3z"/>
<path d="M12097 1404 c-4 -4 -7 -20 -7 -35 0 -22 6 -30 24 -35 52 -13 92 18
70 54 -11 17 -74 29 -87 16z m68 -34 c0 -9 -11 -16 -27 -18 -23 -3 -28 1 -28
18 0 17 5 21 28 18 16 -2 27 -9 27 -18z"/>
<path d="M4933 1383 c-7 -3 -13 -20 -13 -38 0 -35 18 -49 47 -38 15 6 14 1 -5
-30 -15 -27 -18 -37 -8 -37 15 0 100 140 90 149 -6 6 -26 -17 -51 -55 -11 -17
-12 -16 -12 12 -1 32 -20 46 -48 37z m27 -38 c0 -8 -4 -15 -10 -15 -5 0 -10 7
-10 15 0 8 5 15 10 15 6 0 10 -7 10 -15z"/>
<path d="M627 1353 c-4 -3 -7 -21 -7 -40 0 -33 1 -33 45 -33 25 0 45 5 45 10
0 6 -7 10 -15 10 -8 0 -15 5 -15 10 0 6 7 13 15 16 8 4 15 13 15 21 0 13 -3
13 -15 3 -12 -10 -19 -10 -27 -2 -13 13 -31 15 -41 5z m28 -43 c-5 -8 -11 -8
-17 -2 -6 6 -7 16 -3 22 5 8 11 8 17 2 6 -6 7 -16 3 -22z"/>
<path d="M6920 1318 c0 -25 3 -29 10 -18 13 20 13 50 0 50 -5 0 -10 -15 -10
-32z"/>
<path d="M5017 1314 c-4 -4 -7 -22 -7 -41 0 -30 3 -33 31 -33 29 0 30 2 27 38
-2 28 -8 38 -23 40 -12 2 -24 0 -28 -4z m33 -39 c0 -8 -4 -15 -10 -15 -5 0
-10 7 -10 15 0 8 5 15 10 15 6 0 10 -7 10 -15z"/>
<path d="M12090 1301 c0 -5 12 -11 28 -13 l27 -4 -27 -14 c-45 -22 -35 -40 22
-40 28 0 50 5 50 10 0 6 -11 10 -25 10 -14 0 -25 4 -25 8 0 5 11 14 25 20 40
18 29 32 -25 32 -27 0 -50 -4 -50 -9z"/>
<path d="M12011 1254 c0 -11 3 -14 6 -6 3 7 2 16 -1 19 -3 4 -6 -2 -5 -13z"/>
<path d="M618 1243 c-11 -45 14 -66 65 -56 26 5 36 24 29 56 -3 13 -15 17 -47
17 -32 0 -44 -4 -47 -17z m82 -18 c0 -10 -11 -15 -35 -15 -24 0 -35 5 -35 15
0 10 11 15 35 15 24 0 35 -5 35 -15z"/>
<path d="M3970 1175 l0 -45 100 0 100 0 0 45 0 45 -100 0 -100 0 0 -45z"/>
<path d="M6920 1075 l0 -145 35 0 c29 0 36 4 41 26 4 17 2 29 -6 34 -7 4 -9
13 -6 19 4 6 2 11 -5 11 -7 0 -20 7 -30 16 -17 15 -16 17 12 41 34 29 37 49 9
58 -12 4 -24 21 -30 46 -6 21 -13 39 -15 39 -3 0 -5 -65 -5 -145z m70 -110 c0
-8 -4 -15 -10 -15 -5 0 -10 7 -10 15 0 8 5 15 10 15 6 0 10 -7 10 -15z"/>
<path d="M4935 1174 c-11 -12 -15 -30 -13 -62 2 -39 8 -49 31 -62 24 -13 30
-13 55 0 22 13 28 23 30 62 4 54 -15 78 -58 78 -16 0 -36 -7 -45 -16z m63 -57
c3 -32 0 -37 -17 -37 -18 0 -21 6 -21 41 0 33 3 40 18 37 12 -2 18 -14 20 -41z"/>
<path d="M5062 1118 c2 -60 6 -73 21 -76 13 -3 17 3 17 27 0 26 4 31 25 31 16
0 25 6 25 15 0 9 -9 15 -25 15 -16 0 -25 6 -25 15 0 10 10 15 30 15 20 0 30 5
30 15 0 11 -12 15 -50 15 l-51 0 3 -72z"/>
<path d="M5182 1118 c2 -57 6 -73 18 -73 9 0 16 11 18 28 3 21 9 27 28 27 15
0 24 6 24 15 0 9 -9 15 -25 15 -16 0 -25 6 -25 15 0 10 10 15 30 15 20 0 30 5
30 15 0 11 -12 15 -50 15 l-51 0 3 -72z"/>
<path d="M620 1160 c0 -5 12 -10 28 -10 33 0 59 -15 43 -24 -16 -10 -14 -26 3
-26 8 0 17 7 20 16 8 21 8 20 -10 38 -17 18 -84 22 -84 6z"/>
<path d="M9475 1120 c3 -5 8 -10 11 -10 2 0 4 5 4 10 0 6 -5 10 -11 10 -5 0
-7 -4 -4 -10z"/>
<path d="M12012 1080 c0 -14 2 -19 5 -12 2 6 2 18 0 25 -3 6 -5 1 -5 -13z"/>
<path d="M660 1076 c-50 -18 -50 -40 1 -55 42 -13 65 -7 39 9 -12 8 -13 13 -2
30 21 34 17 36 -38 16z m20 -26 c0 -5 -7 -10 -16 -10 -8 0 -12 5 -9 10 3 6 10
10 16 10 5 0 9 -4 9 -10z"/>
<path d="M6960 1060 c0 -5 5 -10 10 -10 6 0 10 5 10 10 0 6 -4 10 -10 10 -5 0
-10 -4 -10 -10z"/>
<path d="M6995 1060 c-3 -5 -1 -10 4 -10 6 0 11 5 11 10 0 6 -2 10 -4 10 -3 0
-8 -4 -11 -10z"/>
<path d="M9371 1003 c6 -16 21 -39 33 -53 13 -14 27 -34 32 -45 7 -16 9 -12
12 22 4 52 -13 90 -33 73 -11 -9 -16 -7 -25 9 -16 31 -31 26 -19 -6z"/>
<path d="M620 975 c0 -9 12 -20 28 -26 l27 -11 -27 -10 c-45 -16 -35 -38 17
-38 48 0 64 19 18 21 l-28 1 28 10 c15 5 27 13 27 18 0 5 -12 13 -27 18 l-28
10 28 1 c46 2 30 21 -18 21 -34 0 -45 -4 -45 -15z"/>
<path d="M12010 936 c0 -14 4 -27 8 -30 5 -3 6 8 4 25 -5 35 -12 38 -12 5z"/>
<path d="M1330 940 c-23 -15 -28 -281 -6 -315 l16 -25 358 0 c265 0 361 3 370
12 17 17 17 309 0 326 -15 15 -715 17 -738 2z m729 -14 c8 -9 11 -60 9 -157
l-3 -144 -365 0 -365 0 -3 149 c-2 113 1 151 10 158 7 4 169 8 359 8 283 0
349 -3 358 -14z"/>
<path d="M1843 845 c-63 -27 -66 -113 -5 -148 27 -16 38 -17 63 -8 41 14 58
38 59 82 0 60 -59 98 -117 74z m37 -98 l-24 -22 18 22 c16 19 17 25 5 40 -12
17 -12 17 6 0 19 -17 19 -17 -5 -40z"/>
<path d="M1550 820 c0 -5 5 -10 10 -10 6 0 10 5 10 10 0 6 -4 10 -10 10 -5 0
-10 -4 -10 -10z"/>
<path d="M1451 773 c-1 -29 4 -53 9 -53 6 0 10 11 10 25 0 18 5 25 20 25 15 0
20 -7 20 -25 0 -14 5 -25 10 -25 6 0 10 23 10 50 0 28 -4 50 -10 50 -5 0 -10
-9 -10 -20 0 -28 -38 -26 -50 3 -7 17 -9 11 -9 -30z"/>
<path d="M1550 760 c0 -22 5 -40 10 -40 6 0 10 18 10 40 0 22 -4 40 -10 40 -5
0 -10 -18 -10 -40z"/>
<path d="M1595 792 c-9 -10 -5 -72 5 -72 6 0 10 14 10 30 0 20 5 30 15 30 10
0 15 -10 15 -30 0 -16 5 -30 10 -30 6 0 10 14 10 30 0 42 27 40 33 -2 4 -27 4
-25 3 7 l-1 40 -47 1 c-26 0 -50 -1 -53 -4z"/>
<path d="M10732 938 c-8 -8 -12 -58 -12 -158 0 -130 2 -149 18 -163 17 -15 57
-17 370 -17 305 0 353 2 366 16 13 13 16 42 16 163 0 101 -4 151 -12 159 -17
17 -729 17 -746 0z m736 -160 l3 -158 -365 0 c-282 0 -365 3 -369 13 -5 14 2
276 8 295 4 10 81 12 362 10 l358 -3 3 -157z"/>
<path d="M11229 831 c-68 -68 0 -173 88 -136 60 25 71 89 24 136 -38 38 -74
38 -112 0z m63 -83 c-12 -12 -22 -17 -22 -11 0 6 7 16 15 23 14 11 14 15 -2
34 -15 18 -14 18 7 -1 l24 -23 -22 -22z"/>
<path d="M10862 770 c0 -37 2 -47 7 -30 4 16 14 25 26 25 12 0 22 -9 26 -25 5
-17 7 -7 7 30 -1 30 -3 45 -5 33 -3 -16 -11 -23 -28 -23 -17 0 -25 7 -28 23
-2 12 -4 -3 -5 -33z"/>
<path d="M10974 792 c-31 -21 -18 -72 19 -71 21 0 21 1 -3 12 l-25 11 28 4
c29 4 35 20 15 40 -14 14 -19 14 -34 4z m26 -22 c0 -5 -4 -10 -9 -10 -6 0 -13
5 -16 10 -3 6 1 10 9 10 9 0 16 -4 16 -10z"/>
<path d="M11040 758 c0 -21 5 -38 10 -38 6 0 10 14 10 30 0 17 5 30 10 30 6 0
10 4 10 8 0 4 -9 8 -20 8 -16 0 -20 -7 -20 -38z"/>
<path d="M12060 900 c0 -6 30 -10 70 -10 40 0 70 4 70 10 0 6 -30 10 -70 10
-40 0 -70 -4 -70 -10z"/>
<path d="M12006 872 c1 -15 3 -40 3 -56 1 -16 4 -27 7 -24 9 10 7 89 -3 99 -5
5 -8 -2 -7 -19z"/>
<path d="M9530 855 c0 -8 3 -14 8 -14 25 4 41 -3 36 -15 -7 -18 -32 -28 -46
-20 -6 4 -27 8 -47 9 l-36 2 30 -13 c79 -34 160 8 100 52 -25 18 -45 18 -45
-1z"/>
<path d="M9390 850 c0 -5 5 -10 10 -10 6 0 10 5 10 10 0 6 -4 10 -10 10 -5 0
-10 -4 -10 -10z"/>
<path d="M9459 839 c13 -10 28 -19 33 -19 15 0 -23 34 -41 36 -11 2 -9 -3 8
-17z"/>
<path d="M779 838 c-5 -15 -4 -50 1 -53 3 -2 6 9 6 26 0 24 -3 37 -7 27z"/>
<path d="M800 786 c0 -8 -6 -17 -12 -19 -8 -3 -6 -6 5 -6 11 -1 17 6 17 19 0
11 -2 20 -5 20 -3 0 -5 -6 -5 -14z"/>
<path d="M12090 790 c0 -5 15 -10 33 -11 l32 -1 -32 -10 c-18 -6 -33 -15 -33
-19 0 -5 15 -15 33 -23 l32 -14 -32 -1 c-54 -2 -37 -21 17 -21 60 0 69 22 18
43 l-33 13 33 12 c52 18 42 42 -18 42 -27 0 -50 -4 -50 -10z"/>
<path d="M600 780 c0 -6 32 -10 75 -10 43 0 75 4 75 10 0 6 -32 10 -75 10 -43
0 -75 -4 -75 -10z"/>
<path d="M790 719 c0 -5 5 -7 10 -4 6 3 10 8 10 11 0 2 -4 4 -10 4 -5 0 -10
-5 -10 -11z"/>
<path d="M12012 623 c-1 -56 1 -104 6 -106 4 -3 6 27 4 66 -5 129 -9 144 -10
40z"/>
<path d="M8580 690 c-9 -6 -10 -10 -3 -10 6 0 15 5 18 10 8 12 4 12 -15 0z"/>
<path d="M12090 674 c0 -2 6 -14 13 -25 10 -17 10 -23 0 -26 -7 -3 -13 -11
-13 -18 0 -11 10 -10 50 3 28 9 50 21 50 27 0 6 -22 18 -50 27 -27 9 -50 14
-50 12z m67 -40 c-3 -3 -12 -4 -19 -1 -8 3 -5 6 6 6 11 1 17 -2 13 -5z"/>
<path d="M792 615 c0 -16 2 -22 5 -12 2 9 2 23 0 30 -3 6 -5 -1 -5 -18z"/>
<path d="M665 620 c3 -5 8 -10 11 -10 2 0 4 5 4 10 0 6 -5 10 -11 10 -5 0 -7
-4 -4 -10z"/>
<path d="M7435 560 c-10 -11 -31 -20 -47 -20 -15 0 -28 -5 -28 -11 0 -8 14
-10 41 -6 47 6 79 31 63 47 -7 7 -16 4 -29 -10z"/>
<path d="M12092 553 c3 -26 7 -28 51 -31 28 -2 47 1 47 7 0 6 -18 11 -41 11
-36 0 -40 2 -34 20 5 14 2 20 -10 20 -12 0 -15 -7 -13 -27z"/>
<path d="M788 563 c7 -3 16 -2 19 1 4 3 -2 6 -13 5 -11 0 -14 -3 -6 -6z"/>
<path d="M778 543 c7 -3 16 -2 19 1 4 3 -2 6 -13 5 -11 0 -14 -3 -6 -6z"/>
<path d="M774 518 c-3 -4 2 -8 10 -8 8 0 17 4 20 8 3 5 -2 9 -10 9 -8 0 -17
-4 -20 -9z"/>
<path d="M7236 519 c6 -11 101 -12 107 -1 3 4 -21 7 -54 8 -32 1 -56 -3 -53
-7z"/>
</g>
</svg>
